<svg width="225" height="225" viewBox="0 0 225 225" fill="none" xmlns="http://www.w3.org/2000/svg">
<rect width="225" height="225" rx="112.5" fill="#FF3186"/>
<path d="M43.5059 82.491C43.5059 78.1748 46.8576 74.533 50.7457 74.533H51.9523C56.1085 74.533 59.1921 78.1748 59.1921 82.491V146.29C59.1921 150.606 55.8403 154.248 51.9523 154.248H50.7457C46.7236 154.248 43.5059 150.606 43.5059 146.29V82.491ZM51.416 61.1797C55.7063 61.1797 59.3262 57.5379 59.3262 53.2217C59.3262 48.9055 55.7063 45.2637 51.416 45.2637C47.1258 45.2637 43.5059 48.9055 43.5059 53.2217C43.5059 57.5379 47.1258 61.1797 51.416 61.1797Z" fill="white"/>
<path d="M165.611 121.543V106.47C165.611 97.7214 158.477 90.5883 149.728 90.5883C140.979 90.5883 133.845 97.7214 133.845 106.47V121.543V146.173C133.845 150.48 130.211 154.113 125.903 154.113C121.596 154.113 117.962 150.48 117.962 146.173V121.543V106.47C117.962 97.7214 110.828 90.5883 102.079 90.5883C93.3295 90.5883 86.1956 97.7214 86.1956 106.47V109.161V146.307C86.1956 150.614 82.5613 154.248 78.254 154.248C73.9468 154.248 70.3125 150.614 70.3125 146.307V109.161C70.3125 108.892 70.3125 108.623 70.3125 108.219C70.3125 107.681 70.3125 107.008 70.3125 106.47C70.3125 88.8387 84.4458 74.707 102.079 74.707C111.635 74.707 120.115 78.8792 125.903 85.474C131.691 78.8792 140.171 74.707 149.728 74.707C167.361 74.707 181.494 88.8387 181.494 106.47C181.494 107.008 181.494 107.681 181.494 108.219C181.494 108.488 181.494 108.758 181.494 109.161V146.307C181.494 150.614 177.86 154.248 173.553 154.248C169.245 154.248 165.611 150.614 165.611 146.307V121.543Z" fill="white"/>
</svg>
