<svg width="355" height="106" viewBox="0 0 355 106" fill="none" xmlns="http://www.w3.org/2000/svg">
<path d="M19 39.2769C19 37.2508 20.582 35.5413 22.4172 35.5413H22.9867C24.9484 35.5413 26.4039 37.2508 26.4039 39.2769V69.2251C26.4039 71.2512 24.8219 72.9607 22.9867 72.9607H22.4172C20.5187 72.9607 19 71.2512 19 69.2251V39.2769ZM22.7336 29.2731C24.7586 29.2731 26.4672 27.5636 26.4672 25.5375C26.4672 23.5114 24.7586 21.8019 22.7336 21.8019C20.7086 21.8019 19 23.5114 19 25.5375C19 27.5636 20.7086 29.2731 22.7336 29.2731Z" fill="#FF3186"/>
<path d="M76.3324 57.5751V50.4838C76.3324 46.3683 72.9785 43.0126 68.8652 43.0126C64.7519 43.0126 61.398 46.3683 61.398 50.4838V57.5751V69.1618C61.398 71.1879 59.6894 72.8974 57.6644 72.8974C55.6394 72.8974 53.9308 71.1879 53.9308 69.1618V57.5751V50.4838C53.9308 46.3683 50.5769 43.0126 46.4637 43.0126C42.3504 43.0126 38.9965 46.3683 38.9965 50.4838V51.7501V69.2251C38.9965 71.2512 37.2879 72.9607 35.2629 72.9607C33.2379 72.9607 31.5293 71.2512 31.5293 69.2251V51.7501C31.5293 51.6235 31.5293 51.4968 31.5293 51.3069C31.5293 51.0536 31.5293 50.7371 31.5293 50.4838C31.5293 42.1895 38.1738 35.5414 46.4637 35.5414C50.9566 35.5414 54.9433 37.5042 57.6644 40.6066C60.3855 37.5042 64.3722 35.5414 68.8652 35.5414C77.155 35.5414 83.7996 42.1895 83.7996 50.4838C83.7996 50.7371 83.7996 51.0536 83.7996 51.3069C83.7996 51.4335 83.7996 51.5602 83.7996 51.7501V69.2251C83.7996 71.2512 82.091 72.9607 80.066 72.9607C78.041 72.9607 76.3324 71.2512 76.3324 69.2251V57.5751Z" fill="#FF3186"/>
<rect width="106" height="106" rx="53" fill="#FF3186"/>
<path d="M20.4961 38.8624C20.4961 36.829 22.0751 35.1133 23.9068 35.1133H24.4753C26.4333 35.1133 27.8861 36.829 27.8861 38.8624V68.9188C27.8861 70.9522 26.307 72.6679 24.4753 72.6679H23.9068C22.012 72.6679 20.4961 70.9522 20.4961 68.9188V38.8624ZM24.2227 28.8224C26.2438 28.8224 27.9492 27.1067 27.9492 25.0733C27.9492 23.0399 26.2438 21.3242 24.2227 21.3242C22.2015 21.3242 20.4961 23.0399 20.4961 25.0733C20.4961 27.1067 22.2015 28.8224 24.2227 28.8224Z" fill="white"/>
<path d="M78.0212 57.2604V50.159C78.0212 46.0376 74.6603 42.6772 70.5385 42.6772C66.4167 42.6772 63.0558 46.0376 63.0558 50.159V57.2604V68.8636C63.0558 70.8926 61.3436 72.6045 59.3144 72.6045C57.2852 72.6045 55.5731 70.8926 55.5731 68.8636V57.2604V50.159C55.5731 46.0376 52.2122 42.6772 48.0904 42.6772C43.9686 42.6772 40.6077 46.0376 40.6077 50.159V51.4271V68.927C40.6077 70.956 38.8956 72.6679 36.8663 72.6679C34.8371 72.6679 33.125 70.956 33.125 68.927V51.4271C33.125 51.3003 33.125 51.1735 33.125 50.9833C33.125 50.7296 33.125 50.4126 33.125 50.159C33.125 41.8529 39.7833 35.1953 48.0904 35.1953C52.5927 35.1953 56.5877 37.1609 59.3144 40.2677C62.0412 37.1609 66.0362 35.1953 70.5385 35.1953C78.8455 35.1953 85.5039 41.8529 85.5039 50.159C85.5039 50.4126 85.5039 50.7296 85.5039 50.9833C85.5039 51.1101 85.5039 51.2369 85.5039 51.4271V68.927C85.5039 70.956 83.7917 72.6679 81.7625 72.6679C79.7333 72.6679 78.0212 70.956 78.0212 68.927V57.2604Z" fill="white"/>
<path d="M99.7998 54.6194C99.7998 44.299 108.153 35.9414 118.468 35.9414C128.783 35.9414 137.136 44.299 137.136 54.6194C137.136 64.9398 128.783 73.2975 118.468 73.2975C114.228 73.2975 110.368 71.9045 107.267 69.5619V88.2399C107.267 90.266 105.558 91.9755 103.533 91.9755C101.508 91.9755 99.7998 90.266 99.7998 88.2399V54.6194ZM118.468 65.8262C124.606 65.8262 129.669 60.761 129.669 54.6194C129.669 48.4778 124.606 43.4126 118.468 43.4126C112.329 43.4126 107.267 48.4778 107.267 54.6194C107.267 60.761 112.329 65.8262 118.468 65.8262Z" fill="black"/>
<path d="M159.601 43.4126C161.626 43.4126 163.334 41.7031 163.334 39.677C163.334 37.6509 161.626 35.9414 159.601 35.9414C155.361 35.9414 151.501 37.3343 148.4 39.677C148.4 37.6509 146.691 35.9414 144.666 35.9414C142.641 35.9414 140.933 37.6509 140.933 39.677V69.6252C140.933 71.6512 142.641 73.3608 144.666 73.3608C146.691 73.3608 148.4 71.6512 148.4 69.6252V54.6194C148.4 48.4778 153.462 43.4126 159.601 43.4126Z" fill="black"/>
<path d="M209.34 38.4106C208.644 36.4478 206.493 35.4981 204.468 36.1945C202.506 36.891 201.493 39.0437 202.253 41.0065L213.201 70.8914C213.77 72.4742 215.289 73.424 216.934 73.2973C218.579 73.3607 220.098 72.4109 220.668 70.8914L231.615 40.9432C232.311 38.9804 231.299 36.8277 229.401 36.1312C227.376 35.4348 225.287 36.4478 224.528 38.3473L216.934 59.1147L209.34 38.4106Z" fill="black"/>
<path d="M263.635 69.5619C260.535 71.9045 256.674 73.2975 252.435 73.2975C242.12 73.2975 233.767 64.9398 233.767 54.6194C233.767 44.299 242.12 35.9414 252.435 35.9414C262.749 35.9414 271.103 44.299 271.103 54.6194V69.5619C271.103 71.588 269.394 73.2975 267.369 73.2975C265.344 73.3608 263.635 71.6513 263.635 69.5619ZM252.435 65.8263C258.573 65.8263 263.635 60.761 263.635 54.6194C263.635 48.4778 258.573 43.4126 252.435 43.4126C246.296 43.4126 241.234 48.4778 241.234 54.6194C241.234 60.761 246.296 65.8263 252.435 65.8263Z" fill="black"/>
<path d="M312.868 54.6193C312.868 64.9397 304.515 73.2973 294.2 73.2973C283.885 73.2973 275.532 64.9397 275.532 54.6193C275.532 44.2989 283.885 35.9413 294.2 35.9413C298.44 35.9413 302.3 37.3342 305.401 39.6769V20.9356C305.401 18.9095 307.11 17.2 309.135 17.2C311.16 17.2 312.868 18.9095 312.868 20.9356V54.6193ZM294.2 43.4125C288.062 43.4125 282.999 48.4777 282.999 54.6193C282.999 60.7609 288.062 65.8261 294.2 65.8261C300.338 65.8261 305.401 60.7609 305.401 54.6193C305.401 48.4777 300.338 43.4125 294.2 43.4125Z" fill="black"/>
<path d="M335.966 35.9414C325.651 35.9414 317.298 44.299 317.298 54.6194C317.298 64.9398 325.651 73.2975 335.966 73.2975C346.281 73.2975 354.634 64.9398 354.634 54.6194C354.634 44.299 346.281 35.9414 335.966 35.9414ZM335.966 65.8263C329.828 65.8263 324.765 60.761 324.765 54.6194C324.765 48.4778 329.828 43.4126 335.966 43.4126C342.104 43.4126 347.167 48.4778 347.167 54.6194C347.167 60.761 342.104 65.8263 335.966 65.8263Z" fill="black"/>
<path d="M181.433 35.9414C171.118 35.9414 162.765 44.299 162.765 54.6194C162.765 64.9398 171.118 73.2975 181.433 73.2975C191.747 73.2975 200.101 64.9398 200.101 54.6194C200.101 44.299 191.747 35.9414 181.433 35.9414ZM181.433 65.8263C175.294 65.8263 170.232 60.761 170.232 54.6194C170.232 48.4778 175.294 43.4126 181.433 43.4126C187.571 43.4126 192.633 48.4778 192.633 54.6194C192.633 60.761 187.571 65.8263 181.433 65.8263Z" fill="black"/>
</svg>
